<svg xmlns="http://www.w3.org/2000/svg" fill="none" viewBox="0 0 280 186">
<g clip-path="url(#clip0_6_52)">
<path d="M130.563 151.693C126.468 131.901 121.35 125.302 121.35 125.302L119.394 123.786L117.042 121.961L117.054 121.726L116.496 121.536L116.365 121.435L116.15 121.27L116.116 121.307L116.043 121.382L105.401 117.767L91.9005 113.183L85.6489 105.06C84.6307 103.737 83.3199 102.668 81.8191 101.937C80.3184 101.205 78.6685 100.831 76.9988 100.843L57.033 100.991C54.3334 101.011 51.7389 102.039 49.7596 103.874L36.6364 116.042L16.1879 125.804L16.1534 125.769L15.9386 125.923L12.7792 127.433L12.9095 128.111L10.954 129.521C10.954 129.521 5.8352 135.661 1.74013 154.077C0.698389 158.763 0.185607 168.815 0.000520133 181.202C-0.00877677 181.828 0.10664 182.451 0.340056 183.032C0.573473 183.614 0.920234 184.143 1.36018 184.59C1.80012 185.036 2.32446 185.391 2.90273 185.633C3.48099 185.875 4.10163 186 4.72857 186H113.948L127.58 186C128.206 186 128.827 185.875 129.404 185.633C129.982 185.391 130.506 185.037 130.946 184.591C131.386 184.145 131.733 183.617 131.967 183.036C132.201 182.455 132.317 181.833 132.308 181.207C132.127 167.728 131.615 156.774 130.563 151.693Z" fill="#3F3D56"/>
<path d="M144.577 17.2601C140.328 17.2601 136.252 18.9474 133.248 21.9508C130.243 24.9542 128.555 29.0277 128.555 33.2752C128.555 37.5226 130.243 41.5961 133.248 44.5995C136.252 47.6029 140.328 49.2902 144.577 49.2902H263.978C268.227 49.2902 272.303 47.6029 275.307 44.5995C278.312 41.5961 280 37.5226 280 33.2752C280 29.0277 278.312 24.9542 275.307 21.9508C272.303 18.9474 268.227 17.2601 263.978 17.2601H144.577Z" fill="#E5E5E5"/>
<path d="M144.577 20.5012C141.187 20.5012 137.937 21.8471 135.54 24.2426C133.144 26.6382 131.797 29.8873 131.797 33.2752C131.797 36.663 133.144 39.9121 135.54 42.3077C137.937 44.7033 141.187 46.0491 144.577 46.0491H263.978C267.367 46.0491 270.618 44.7033 273.014 42.3077C275.411 39.9121 276.757 36.663 276.757 33.2752C276.757 29.8873 275.411 26.6382 273.014 24.2426C270.618 21.8471 267.367 20.5012 263.978 20.5012H144.577Z" fill="white"/>
<path d="M70.1513 93.3454C84.5975 93.3454 96.3084 81.6394 96.3084 67.1994C96.3084 52.7594 84.5975 41.0534 70.1513 41.0534C55.7051 41.0534 43.9941 52.7594 43.9941 67.1994C43.9941 81.6394 55.7051 93.3454 70.1513 93.3454Z" fill="#B5767F"/>
<path d="M63.4598 92.0651C63.3481 91.8192 63.2366 91.5724 63.1255 91.3248C63.1683 91.3262 63.2107 91.3323 63.2535 91.3334L63.4598 92.0651Z" fill="#2F2E41"/>
<path d="M43.2668 42.2424C44.5897 41.1875 46.1359 40.2169 47.8274 40.2715C49.5188 40.3259 51.234 41.853 50.8836 43.5079C53.9904 38.0094 58.9355 33.7803 64.8509 31.5632C70.7664 29.346 77.274 29.2824 83.2317 31.3834C87.4356 32.8659 91.5582 35.8319 92.5239 40.182C92.7718 41.2987 92.825 42.5232 93.5226 43.43C94.4021 44.5733 96.0848 44.8319 97.4704 44.4297C97.4842 44.4257 97.4981 44.4216 97.5119 44.4175C97.746 44.3376 97.9986 44.3297 98.2372 44.3949C98.4758 44.4602 98.6893 44.5954 98.8502 44.7832C99.011 44.9711 99.1118 45.2028 99.1394 45.4485C99.1671 45.6942 99.1203 45.9425 99.0052 46.1614L97.8157 48.3788C99.3152 48.7129 100.873 48.6798 102.357 48.2823C102.604 48.2177 102.864 48.2309 103.103 48.3201C103.341 48.4092 103.547 48.5701 103.69 48.7805C103.834 48.9909 103.909 49.2406 103.905 49.4953C103.901 49.75 103.818 49.9972 103.668 50.2031C99.7461 55.5857 93.1934 59.0616 86.5065 59.0207C81.7539 58.9917 76.9523 57.3545 72.3269 58.4469C70.5375 58.8696 68.8655 59.6873 67.4335 60.8401C66.0016 61.9928 64.8459 63.4515 64.0515 65.1089C63.257 66.7664 62.8439 68.5806 62.8423 70.4184C62.8408 72.2563 63.251 74.0712 64.0427 75.73C62.6217 74.1764 59.8749 74.5442 58.4214 76.0674C56.968 77.5907 56.5917 79.8641 56.7381 81.964C56.9621 85.1758 58.221 88.2021 59.5481 91.1475C48.4212 90.7974 37.8969 82.9954 34.3544 72.4429C30.7971 61.8462 34.5253 49.2128 43.2668 42.2424Z" fill="#2F2E41"/>
<path opacity="0.2" d="M25.7454 145.717L33.0818 185.617L37.4839 186L25.7454 145.717Z" fill="black"/>
<path opacity="0.2" d="M106.558 142.708L99.2216 185.588L94.8196 186L106.558 142.708Z" fill="black"/>
<path d="M49.5243 28.8144C48.1177 29.4015 46.6499 28.7581 46.0343 27.2845C45.4093 25.7884 45.993 24.2697 47.4222 23.6732C48.8516 23.0766 50.2933 23.7216 50.9283 25.2418C51.5538 26.7392 50.9765 28.2083 49.5243 28.8144ZM46.8297 20.7284L45.7113 21.1952C45.4319 21.3105 45.1194 21.3167 44.8356 21.2126C44.5518 21.1086 44.3175 20.9019 44.1788 20.6334L44.1235 20.5252C42.9201 18.3558 42.7823 15.7191 43.7162 12.6926C44.5813 9.97768 44.9406 8.06828 44.218 6.33846C43.3825 4.33847 41.5984 3.71197 39.3233 4.61953C38.4409 4.98782 38.1602 4.98195 37.4658 5.67051C37.3147 5.82211 37.1347 5.94175 36.9364 6.0223C36.7381 6.10285 36.5256 6.14265 36.3115 6.13935C36.1046 6.13691 35.9003 6.09285 35.7108 6.0098C35.5213 5.92674 35.3505 5.80639 35.2086 5.65593C34.935 5.36596 34.7818 4.98304 34.7798 4.58452C34.7778 4.186 34.9271 3.80156 35.1977 3.50884C36.3649 2.28757 37.7726 1.32139 39.3321 0.671272C44.2203 -1.36899 46.6811 1.64316 47.8071 4.33876C48.9085 6.97537 48.289 9.42169 47.2935 12.5899C46.4592 15.2225 46.5078 17.1733 47.4555 19.1129C47.5239 19.2595 47.562 19.4185 47.5674 19.5802C47.5728 19.7419 47.5455 19.903 47.487 20.0539C47.4286 20.2048 47.3402 20.3423 47.2273 20.4582C47.1144 20.5741 46.9791 20.666 46.8297 20.7284Z" fill="#FFD037"/>
<path d="M170.951 40.9133H147.195C147.119 40.9138 147.044 40.8993 146.974 40.8708C146.904 40.8423 146.841 40.8003 146.787 40.7471C146.734 40.6939 146.691 40.6307 146.662 40.5611C146.633 40.4914 146.618 40.4167 146.618 40.3413C146.618 40.2658 146.633 40.1911 146.662 40.1215C146.691 40.0518 146.734 39.9886 146.787 39.9355C146.841 39.8823 146.904 39.8403 146.974 39.8117C147.044 39.7832 147.119 39.7688 147.195 39.7693H170.951C171.102 39.7703 171.247 39.8311 171.353 39.9382C171.46 40.0454 171.519 40.1903 171.519 40.3413C171.519 40.4923 171.46 40.6372 171.353 40.7444C171.247 40.8515 171.102 40.9122 170.951 40.9133Z" fill="#FFD037"/>
<path d="M201.087 41.1039H177.331C177.256 41.1044 177.181 41.09 177.111 41.0615C177.041 41.033 176.977 40.9909 176.924 40.9377C176.87 40.8846 176.828 40.8214 176.799 40.7517C176.77 40.6821 176.755 40.6074 176.755 40.5319C176.755 40.4565 176.77 40.3818 176.799 40.3121C176.828 40.2425 176.87 40.1793 176.924 40.1261C176.977 40.0729 177.041 40.0309 177.111 40.0024C177.181 39.9739 177.256 39.9594 177.331 39.96H201.087C201.163 39.9594 201.238 39.9739 201.308 40.0024C201.377 40.0309 201.441 40.0729 201.495 40.1261C201.548 40.1793 201.591 40.2425 201.62 40.3121C201.649 40.3818 201.664 40.4565 201.664 40.5319C201.664 40.6074 201.649 40.6821 201.62 40.7517C201.591 40.8214 201.548 40.8846 201.495 40.9377C201.441 40.9909 201.377 41.033 201.308 41.0615C201.238 41.09 201.163 41.1044 201.087 41.1039Z" fill="#FFD037"/>
<path d="M231.224 41.2946H207.468C207.316 41.2935 207.172 41.2328 207.065 41.1257C206.959 41.0185 206.899 40.8736 206.899 40.7226C206.899 40.5716 206.959 40.4267 207.065 40.3195C207.172 40.2124 207.316 40.1516 207.468 40.1506H231.224C231.299 40.1501 231.374 40.1645 231.444 40.193C231.514 40.2215 231.578 40.2636 231.631 40.3168C231.685 40.3699 231.727 40.4331 231.756 40.5028C231.785 40.5724 231.8 40.6471 231.8 40.7226C231.8 40.798 231.785 40.8727 231.756 40.9424C231.727 41.012 231.685 41.0752 231.631 41.1284C231.578 41.1816 231.514 41.2236 231.444 41.2521C231.374 41.2806 231.299 41.2951 231.224 41.2946Z" fill="#FFD037"/>
<path d="M261.36 41.4852H237.604C237.453 41.4842 237.308 41.4235 237.202 41.3163C237.095 41.2091 237.036 41.0643 237.036 40.9132C237.036 40.7622 237.095 40.6173 237.202 40.5102C237.308 40.403 237.453 40.3423 237.604 40.3413H261.36C261.511 40.3423 261.656 40.403 261.763 40.5102C261.869 40.6173 261.929 40.7622 261.929 40.9132C261.929 41.0643 261.869 41.2091 261.763 41.3163C261.656 41.4235 261.511 41.4842 261.36 41.4852Z" fill="#FFD037"/>
<path d="M159.021 35.6494C161.459 35.6494 163.436 33.6734 163.436 31.2359C163.436 28.7985 161.459 26.8225 159.021 26.8225C156.582 26.8225 154.605 28.7985 154.605 31.2359C154.605 33.6734 156.582 35.6494 159.021 35.6494Z" fill="black"/>
<path d="M189.339 35.6494C191.777 35.6494 193.754 33.6734 193.754 31.2359C193.754 28.7985 191.777 26.8225 189.339 26.8225C186.9 26.8225 184.924 28.7985 184.924 31.2359C184.924 33.6734 186.9 35.6494 189.339 35.6494Z" fill="black"/>
<path d="M219.657 35.6494C222.096 35.6494 224.073 33.6734 224.073 31.2359C224.073 28.7985 222.096 26.8225 219.657 26.8225C217.219 26.8225 215.242 28.7985 215.242 31.2359C215.242 33.6734 217.219 35.6494 219.657 35.6494Z" fill="black"/>
<path d="M249.976 35.6494C252.414 35.6494 254.391 33.6734 254.391 31.2359C254.391 28.7985 252.414 26.8225 249.976 26.8225C247.537 26.8225 245.561 28.7985 245.561 31.2359C245.561 33.6734 247.537 35.6494 249.976 35.6494Z" fill="black"/>
</g>
<defs>
<clipPath id="clip0_6_52">
<rect width="280" height="186" fill="white"/>
</clipPath>
</defs>
</svg>