<svg width="162" height="105" viewBox="0 0 162 105" fill="none" xmlns="http://www.w3.org/2000/svg">
<g clip-path="url(#clip0_124_172)">
<path d="M118.88 98.2661C118.888 107.227 101.109 104.471 79.3423 104.49C57.576 104.508 40.0654 107.295 40.0576 98.3341C40.0499 89.3728 57.8229 87.4084 79.5892 87.3897C101.356 87.3709 118.873 89.3048 118.88 98.2661Z" fill="#E6E6E6"/>
<path d="M162 104.484H0V104.894H162V104.484Z" fill="#3F3D56"/>
<path d="M103.626 86.1639H100.78L99.4258 75.1915H103.626V86.1639Z" fill="#A0616A"/>
<path d="M98.4313 85.3511H104.235V88.8054H95.292V88.4894C95.292 87.657 95.6227 86.8588 96.2115 86.2703C96.8002 85.6817 97.5987 85.3511 98.4313 85.3511Z" fill="#2F2E41"/>
<path d="M124.542 102.358H121.697L120.342 91.3861H124.542V102.358Z" fill="#A0616A"/>
<path d="M119.348 101.546H125.152V105H116.208V104.684C116.208 103.852 116.539 103.053 117.128 102.465C117.717 101.876 118.515 101.546 119.348 101.546Z" fill="#2F2E41"/>
<path d="M137.668 69.7616C137.865 69.5231 138.007 69.2444 138.084 68.945C138.162 68.6457 138.172 68.333 138.116 68.0291C138.059 67.7252 137.937 67.4373 137.757 67.1859C137.577 66.9344 137.344 66.7255 137.074 66.5738L130.465 39.6594L126.239 41.477L134.1 67.5009C133.875 67.9703 133.831 68.5059 133.974 69.0062C134.118 69.5065 134.44 69.9367 134.88 70.2154C135.32 70.4941 135.846 70.6018 136.36 70.5182C136.874 70.4345 137.34 70.1654 137.668 69.7616Z" fill="#A0616A"/>
<path d="M132.513 15.3672C132.277 15.1207 131.99 14.9289 131.672 14.8053C131.354 14.6817 131.013 14.6293 130.673 14.6518C130.332 14.6743 130.001 14.7712 129.702 14.9356C129.403 15.1 129.143 15.328 128.942 15.6034L118.712 16.7774L120.269 20.7218L129.572 18.9812C130.057 19.2887 130.638 19.4075 131.205 19.3151C131.772 19.2228 132.286 18.9257 132.648 18.4803C133.011 18.0348 133.197 17.4718 133.173 16.898C133.148 16.3243 132.913 15.7796 132.513 15.3672Z" fill="#A0616A"/>
<path d="M115.656 66.9704L120.12 100.461L125.675 99.3178C125.675 99.3178 124.858 74.9272 127.636 71.9869C130.414 69.0465 124.063 63.8955 124.063 63.8955L115.656 66.9704Z" fill="black"/>
<path d="M117.374 57.5945L115.323 60.6695C115.323 60.6695 99.5335 54.1098 99.5335 64.5644C99.5335 75.019 98.6299 82.1139 98.3031 82.6039C97.9763 83.094 102.084 84.3656 104.045 84.0389C104.045 84.0389 106.464 67.1844 106.301 66.2043C106.301 66.2043 121.79 73.796 124.731 73.1426C127.672 72.4892 128.367 70.1761 128.858 68.8693C129.348 67.5624 128.652 57.1846 128.652 57.1846L118.848 54.1936L117.374 57.5945Z" fill="black"/>
<path d="M117.778 39.2837L117.193 38.5826C117.193 38.5826 110.647 23.8582 113.219 19.8849C115.791 15.9117 127.013 15.3274 127.364 15.5611C127.714 15.7948 126.526 18.8293 127.344 20.2316C127.344 20.2316 118.651 22.1158 118.066 22.3495C117.482 22.5832 122.571 31.2204 122.571 31.2204L121.986 36.4791L117.778 39.2837Z" fill="#CCCCCC"/>
<path d="M129.234 32.0384C129.234 32.0384 123.155 32.7395 122.922 32.7395C122.688 32.7395 122.571 31.2203 122.571 31.2203L117.194 38.5825C117.194 38.5825 114.544 59.9412 115.246 59.5906C115.947 59.24 128.883 61.2534 129 60.3185C129.117 59.3837 128.883 54.7093 129.234 54.4755C129.585 54.2418 135.313 39.7511 135.313 39.7511C135.313 39.7511 134.728 36.7128 132.741 35.661C130.754 34.6093 129.234 32.0384 129.234 32.0384Z" fill="#CCCCCC"/>
<path d="M133.442 37.7645L135.313 39.7511C135.313 39.7511 138.092 62.5793 136.572 63.2805C135.052 63.9817 132.061 63.8955 132.061 63.8955L129.117 53.0732L133.442 37.7645Z" fill="#CCCCCC"/>
<path d="M123.393 30.5927C126.364 30.5927 128.773 28.1845 128.773 25.2139C128.773 22.2433 126.364 19.8351 123.393 19.8351C120.421 19.8351 118.012 22.2433 118.012 25.2139C118.012 28.1845 120.421 30.5927 123.393 30.5927Z" fill="#A0616A"/>
<path d="M122.13 26.0532C122.057 24.9371 120.649 24.8988 119.53 24.8883C118.411 24.8777 117.074 24.9176 116.441 23.9954C116.022 23.386 116.102 22.5399 116.448 21.8865C116.793 21.2331 117.362 20.7305 117.921 20.2471C119.365 18.9989 120.853 17.7606 122.587 16.9617C124.32 16.1628 126.352 15.8399 128.15 16.4813C130.358 17.2691 133.344 21.3245 133.602 23.6544C133.859 25.9843 132.928 28.3595 131.358 30.1006C129.788 31.8417 126.194 31.1392 123.932 31.7586C125.307 29.8133 124.401 26.2786 122.198 25.3702L122.13 26.0532Z" fill="black"/>
<path d="M74.1761 95.6288C81.3098 95.6288 87.0929 89.8477 87.0929 82.7163C87.0929 75.5849 81.3098 69.8038 74.1761 69.8038C67.0423 69.8038 61.2593 75.5849 61.2593 82.7163C61.2593 89.8477 67.0423 95.6288 74.1761 95.6288Z" fill="#C25F14"/>
<path d="M65.5499 68.8863C63.7597 68.8864 62.0079 68.3679 60.5064 67.3933C59.005 66.4188 57.8183 65.0301 57.0899 63.3953L36.5934 17.2527C35.9145 15.7242 35.5554 14.0731 35.5382 12.4007C35.5211 10.7284 35.8463 9.07028 36.4937 7.52821C37.1412 5.98614 38.0973 4.59274 39.3033 3.43365C40.5093 2.27455 41.9397 1.37427 43.5065 0.788116C45.0734 0.201966 46.7436 -0.057662 48.4145 0.025194C50.0854 0.10805 51.7217 0.531638 53.2228 1.26992C54.7239 2.0082 56.0581 3.04558 57.1435 4.3183C58.2288 5.59101 59.0422 7.07216 59.5339 8.67071L74.3758 56.929C74.8008 58.3103 74.8957 59.772 74.653 61.1966C74.4103 62.6213 73.8368 63.9691 72.9784 65.132C72.1201 66.2949 71.0009 67.2403 69.7108 67.8923C68.4207 68.5443 66.9955 68.8848 65.5499 68.8863Z" fill="#C25F14"/>
</g>
<defs>
<clipPath id="clip0_124_172">
<rect width="162" height="105" fill="white"/>
</clipPath>
</defs>
</svg>
