<svg xmlns="http://www.w3.org/2000/svg" fill="none" viewBox="1.67 1 12.67 14">
<path d="M13.3333 9.66667C13.8856 9.66667 14.3333 10.1144 14.3333 10.6667V13.3333C14.3333 14.2538 13.5871 15 12.6666 15H3.33329C2.41282 15 1.66663 14.2538 1.66663 13.3333V10.6667C1.66663 10.1144 2.11434 9.66667 2.66663 9.66667C3.21891 9.66667 3.66663 10.1144 3.66663 10.6667V13H12.3333V10.6667C12.3333 10.1144 12.781 9.66667 13.3333 9.66667ZM7.99996 1C8.55223 1 8.99996 1.44771 8.99996 2V8.02367L10.1213 6.90233C10.5118 6.51184 11.145 6.51184 11.5355 6.90233C11.926 7.29287 11.926 7.92607 11.5355 8.3166L8.82489 11.0271C8.36929 11.4828 7.63063 11.4828 7.17503 11.0271L4.46443 8.3166C4.0739 7.92607 4.0739 7.29287 4.46443 6.90233C4.85495 6.51184 5.48811 6.51184 5.87864 6.90233L6.99996 8.02367V2C6.99996 1.44771 7.44769 1 7.99996 1Z" fill="#42474A"/>
</svg>