<svg xmlns="http://www.w3.org/2000/svg" fill="none" viewBox="2.67 1.33 10.67 13.33">
<path d="M4.4799 11.0932C4.83336 10.9902 5.20346 11.1931 5.30652 11.5467C5.40958 11.9001 5.20658 12.2702 4.85311 12.3733C4.51926 12.4706 4.27934 12.5738 4.12561 12.6664C4.28474 12.7622 4.53484 12.8687 4.88315 12.9682C5.65289 13.1881 6.75504 13.3331 7.99984 13.3331C9.24464 13.3331 10.3468 13.1881 11.1165 12.9682C11.4648 12.8687 11.7149 12.7622 11.874 12.6664C11.7203 12.5738 11.4804 12.4706 11.1466 12.3733C10.7931 12.2702 10.5901 11.9001 10.6932 11.5467C10.7962 11.1931 11.1663 10.9902 11.5198 11.0932C11.9652 11.2231 12.3737 11.3898 12.686 11.6039C12.9768 11.8032 13.3332 12.1506 13.3332 12.6664C13.3332 13.1888 12.968 13.5385 12.673 13.7378C12.3546 13.9528 11.9379 14.1202 11.4828 14.2502C10.5636 14.5129 9.33237 14.6664 7.99984 14.6664C6.6673 14.6664 5.43612 14.5129 4.51686 14.2502C4.06176 14.1202 3.64501 13.9528 3.32672 13.7378C3.03171 13.5385 2.6665 13.1888 2.6665 12.6664C2.6665 12.1506 3.02286 11.8032 3.31362 11.6039C3.62596 11.3898 4.03452 11.2231 4.4799 11.0932ZM7.99984 1.33333C10.7612 1.33333 12.9998 3.57193 12.9998 6.33333C12.9998 8.04527 12.0668 9.4376 11.1 10.4261C10.69 10.8452 10.2603 11.206 9.86452 11.5034C9.46872 11.8008 8.5635 12.3577 8.5635 12.3577C8.21157 12.5565 7.7881 12.5565 7.43617 12.3577C7.08424 12.1589 6.53094 11.8008 6.13514 11.5034C5.73935 11.206 5.30965 10.8452 4.89969 10.4261C3.93286 9.4376 2.99984 8.04527 2.99984 6.33333C2.99984 3.57193 5.23841 1.33333 7.99984 1.33333ZM7.99984 2.66667C5.97479 2.66667 4.33317 4.30827 4.33317 6.33333C4.33317 7.54433 4.99694 8.61867 5.85288 9.49373C6.49686 10.1521 7.20684 10.653 7.69814 10.9616C7.88003 11.072 7.9806 11.1328 7.99984 11.144L8.30153 10.9616C8.79282 10.653 9.50278 10.1521 10.1468 9.49373C11.0028 8.61867 11.6665 7.54433 11.6665 6.33333C11.6665 4.30827 10.0249 2.66667 7.99984 2.66667ZM7.99984 4.33333C9.10444 4.33333 9.99984 5.22873 9.99984 6.33333C9.99984 7.43793 9.10444 8.33333 7.99984 8.33333C6.89524 8.33333 5.99984 7.43793 5.99984 6.33333C5.99984 5.22873 6.89524 4.33333 7.99984 4.33333ZM7.99984 5.66667C7.63164 5.66667 7.33317 5.96513 7.33317 6.33333C7.33317 6.70153 7.63164 7 7.99984 7C8.36804 7 8.6665 6.70153 8.6665 6.33333C8.6665 5.96513 8.36804 5.66667 7.99984 5.66667Z" fill="#C25F14"/>
</svg>