<svg xmlns="http://www.w3.org/2000/svg" fill="none" viewBox="2.94 2.5 19.97 19">
<path fill-rule="evenodd" clip-rule="evenodd" d="M6.08964 10C6.08964 7.51472 8.20768 5.5 10.8204 5.5C13.4332 5.5 15.5512 7.51472 15.5512 10C15.5512 12.4853 13.4332 14.5 10.8204 14.5C8.20768 14.5 6.08964 12.4853 6.08964 10ZM10.8204 2.5C6.46585 2.5 2.93579 5.85786 2.93579 10C2.93579 14.1421 6.46585 17.5 10.8204 17.5C12.4274 17.5 13.9221 17.0427 15.1686 16.2574L20.2181 21.0607C20.834 21.6464 21.8325 21.6464 22.4483 21.0607C23.0641 20.4749 23.0641 19.5251 22.4483 18.9393L17.3987 14.1361C18.2243 12.9504 18.705 11.5286 18.705 10C18.705 5.85786 15.1749 2.5 10.8204 2.5Z" fill="#9D9D9C"/>
</svg>