<svg xmlns="http://www.w3.org/2000/svg" fill="none" viewBox="0.67 0.65 12.67 13.02">
<path d="M6.99984 1.66666C10.3136 1.66666 12.9998 4.35296 12.9998 7.66666C12.9998 10.9804 10.3136 13.6667 6.99984 13.6667C3.68613 13.6667 0.999837 10.9804 0.999837 7.66666C0.999837 4.35296 3.68613 1.66666 6.99984 1.66666ZM6.99984 3C4.42251 3 2.33317 5.08934 2.33317 7.66666C2.33317 10.244 4.42251 12.3333 6.99984 12.3333C9.57717 12.3333 11.6665 10.244 11.6665 7.66666C11.6665 5.08934 9.57717 3 6.99984 3ZM6.99984 4.33333C7.34174 4.33333 7.62351 4.59069 7.66202 4.92225L7.6665 5V7.3906L8.87484 8.59887C9.13517 8.85927 9.13517 9.28133 8.87484 9.54167C8.63447 9.78203 8.25635 9.80052 7.99479 9.59713L7.93197 9.54167L6.52837 8.13806C6.41798 8.02768 6.3544 7.88817 6.33762 7.74423L6.33317 7.65753V5C6.33317 4.63181 6.63164 4.33333 6.99984 4.33333ZM10.0894 0.980585C10.2738 0.661871 10.6816 0.552965 11.0004 0.737331C11.8345 1.21986 12.5731 1.84848 13.1814 2.58811C13.4153 2.87248 13.3744 3.2926 13.09 3.52648C12.8056 3.76036 12.3855 3.71942 12.1516 3.43505C11.644 2.8179 11.0279 2.29361 10.3327 1.89147C10.014 1.7071 9.9051 1.29929 10.0894 0.980585ZM2.99937 0.737331C3.31808 0.552965 3.7259 0.661878 3.91026 0.980585C4.09462 1.29929 3.98572 1.7071 3.667 1.89147C2.97183 2.29361 2.35566 2.8179 1.84808 3.43505C1.61421 3.71942 1.19409 3.76036 0.909717 3.52648C0.62535 3.2926 0.584417 2.87248 0.818297 2.58811C1.4266 1.84848 2.1652 1.21986 2.99937 0.737331Z" fill="#C25F14"/>
</svg>