<svg xmlns="http://www.w3.org/2000/svg" fill="none" viewBox="2 1.33 12 13.33">
<path fill-rule="evenodd" clip-rule="evenodd" d="M10.6667 9.33331C12.4592 9.33331 13.9212 10.7482 13.9969 12.5221L14 12.6666V13.3333C14 14.0362 13.4561 14.6121 12.7662 14.663L12.6667 14.6666H3.33333C2.63043 14.6666 2.05456 14.1227 2.00366 13.4328L2 13.3333V12.6666C2 10.8742 3.41487 9.4121 5.18874 9.33639L5.33333 9.33331H10.6667ZM10.6667 10.6666H5.33333C4.26822 10.6666 3.39756 11.4992 3.33673 12.5491L3.33333 12.6666V13.3333H12.6667V12.6666C12.6667 11.6015 11.8341 10.7309 10.7842 10.67L10.6667 10.6666ZM8 1.33331C9.84093 1.33331 11.3333 2.8257 11.3333 4.66665C11.3333 6.50759 9.84093 7.99998 8 7.99998C6.15905 7.99998 4.66667 6.50759 4.66667 4.66665C4.66667 2.8257 6.15905 1.33331 8 1.33331ZM8 2.66665C6.8954 2.66665 6 3.56208 6 4.66665C6 5.77121 6.8954 6.66665 8 6.66665C9.1046 6.66665 10 5.77121 10 4.66665C10 3.56208 9.1046 2.66665 8 2.66665Z" fill="#C25F14"/>
</svg>