<svg xmlns="http://www.w3.org/2000/svg" fill="none" viewBox="1.33 2.67 13.33 10.67">
<path d="M12.6667 2.66669C13.7319 2.66669 14.6025 3.4993 14.6633 4.54917L14.6667 4.66669V5.8781C14.6667 6.28235 14.4318 6.59694 14.1494 6.76444L14.0779 6.80322C13.6354 7.02155 13.3334 7.47615 13.3334 8.00002C13.3334 8.48647 13.5938 8.91319 13.9853 9.14648L14.0779 9.19682C14.367 9.33941 14.6241 9.63389 14.6619 10.0228L14.6667 10.122V11.3334C14.6667 12.3985 13.8341 13.2691 12.7842 13.33L12.6667 13.3334H3.33337C2.26826 13.3334 1.3976 12.5008 1.33677 11.4509L1.33337 11.3334V10.122C1.33337 9.71771 1.56826 9.4031 1.85068 9.2356L1.92216 9.19682C2.36465 8.97849 2.66671 8.52389 2.66671 8.00002C2.66671 7.51357 2.40626 7.08685 2.01477 6.85356L1.92216 6.80322C1.63313 6.66063 1.37601 6.36617 1.33816 5.97726L1.33337 5.8781V4.66669C1.33337 3.60157 2.16599 2.73091 3.21586 2.67008L3.33337 2.66669H12.6667ZM12.6667 4.00002H3.33337C2.99149 4.00002 2.7097 4.25738 2.67119 4.58894L2.66671 4.66669V5.69025C3.46264 6.1506 4.00004 7.01202 4.00004 8.00002C4.00004 8.93602 3.51772 9.7584 2.79019 10.2338L2.66671 10.3098V11.3334C2.66671 11.6753 2.92407 11.957 3.25563 11.9955L3.33337 12H12.6667C13.0086 12 13.2904 11.7427 13.3289 11.4111L13.3334 11.3334V10.3098C12.5374 9.84942 12 8.98802 12 8.00002C12 7.06402 12.4824 6.24163 13.2099 5.76623L13.3334 5.69025V4.66669C13.3334 4.3248 13.076 4.04302 12.7445 4.00451L12.6667 4.00002ZM6.66671 6.00002C7.00861 6.00002 7.29038 6.25738 7.32889 6.58894L7.33337 6.66669V9.33335C7.33337 9.70155 7.03491 10 6.66671 10C6.32482 10 6.04304 9.74267 6.00453 9.4111L6.00004 9.33335V6.66669C6.00004 6.2985 6.29852 6.00002 6.66671 6.00002Z" fill="#C25F14"/>
</svg>